<svg width="249.001" height="65.2" viewBox="0 0 249.001 65.2" xmlns="http://www.w3.org/2000/svg"><g id="svgGroup" stroke-linecap="round" fill-rule="evenodd" font-size="9pt" stroke="#000" stroke-width="0.25mm" fill="black" style="stroke:#000;stroke-width:0.25mm;fill:black"><path d="M 28.601 4.4 L 28.401 4.7 A 13.841 13.841 0 0 1 31.939 11.707 A 19.953 19.953 0 0 1 32.301 15.6 A 19.367 19.367 0 0 1 31.735 20.416 A 13.599 13.599 0 0 1 28.101 26.85 A 13.935 13.935 0 0 1 21.255 30.509 A 20.842 20.842 0 0 1 16.601 31 A 21.55 21.55 0 0 1 12.509 30.628 A 16.918 16.918 0 0 1 9.101 29.6 Q 6.653 31.18 5.39 32.323 A 9.236 9.236 0 0 0 4.801 32.9 Q 3.616 34.183 3.601 35.272 A 2.025 2.025 0 0 0 3.601 35.3 A 2.955 2.955 0 0 0 4.884 37.757 Q 5.362 38.117 6.018 38.404 A 8.427 8.427 0 0 0 6.651 38.65 Q 9.701 39.7 16.401 40.8 Q 22.401 41.7 26.251 42.65 Q 30.101 43.6 32.801 45.75 Q 35.501 47.9 35.501 51.5 A 9.475 9.475 0 0 1 33.97 56.621 A 13.004 13.004 0 0 1 32.751 58.25 A 17.507 17.507 0 0 1 28.652 61.662 A 23.223 23.223 0 0 1 25.401 63.3 Q 20.801 65.2 15.601 65.2 A 25.213 25.213 0 0 1 10.961 64.798 Q 8.304 64.301 6.189 63.186 A 13.676 13.676 0 0 1 4.251 61.95 A 11.551 11.551 0 0 1 1.579 59.144 A 9.677 9.677 0 0 1 0.001 53.7 Q 0.501 50.3 2.901 47.65 Q 4.514 45.87 7.255 44.021 A 46.909 46.909 0 0 1 10.201 42.2 L 10.201 41.7 Q 7.412 41.102 5.483 40.196 A 11.205 11.205 0 0 1 3.751 39.2 A 5.531 5.531 0 0 1 2.274 37.686 Q 1.501 36.482 1.501 34.9 Q 1.986 32.476 6.887 29.113 A 42.371 42.371 0 0 1 7.201 28.9 L 7.201 28.6 Q 4.301 26.6 2.701 23.35 A 15.465 15.465 0 0 1 1.273 18.554 A 19.826 19.826 0 0 1 1.101 15.9 A 20.449 20.449 0 0 1 1.597 11.259 Q 2.478 7.477 4.922 4.885 A 13.08 13.08 0 0 1 5.301 4.5 A 13.885 13.885 0 0 1 11.801 0.977 Q 14.126 0.4 16.901 0.4 A 20.194 20.194 0 0 1 21.482 0.896 A 15.254 15.254 0 0 1 26.301 2.9 A 207.849 207.849 0 0 0 31.57 1.836 Q 35.726 0.938 39.101 0 L 39.501 0.3 L 39.501 2.1 A 121.248 121.248 0 0 1 35.101 3.131 Q 32.842 3.619 30.315 4.089 A 209.382 209.382 0 0 1 28.601 4.4 Z M 165.501 42.8 L 166.101 43.1 L 165.701 44.9 Q 163.701 46.3 161.201 46.3 Q 158.401 46.3 157.101 44.3 Q 155.918 42.481 155.812 38.84 A 25.264 25.264 0 0 1 155.801 38.1 L 155.401 38.1 Q 147.701 46.4 139.401 46.4 A 14.603 14.603 0 0 1 135.814 45.985 A 9.786 9.786 0 0 1 130.651 42.85 Q 128.081 39.859 127.677 34.774 A 24.896 24.896 0 0 1 127.601 32.8 L 127.601 1.1 L 129.601 0.7 L 129.601 32.7 A 19.367 19.367 0 0 0 129.874 36.063 Q 130.444 39.289 132.201 41.35 A 8.413 8.413 0 0 0 136.962 44.124 A 12.856 12.856 0 0 0 139.701 44.4 A 14.818 14.818 0 0 0 144.931 43.412 A 19.653 19.653 0 0 0 147.801 42.05 Q 151.901 39.7 155.801 35.2 L 155.801 1.1 L 157.801 0.7 L 157.801 38.1 Q 157.801 40.86 158.433 42.355 A 4.292 4.292 0 0 0 158.651 42.8 A 2.79 2.79 0 0 0 160.646 44.233 A 4.073 4.073 0 0 0 161.401 44.3 Q 163.701 44.3 165.501 42.8 Z M 181.001 45.5 L 181.001 64.5 L 179.001 64.5 L 179.001 1.1 L 181.001 0.7 L 181.001 7.4 L 181.301 7.4 Q 184.201 4 188.101 2.15 A 18.508 18.508 0 0 1 195.845 0.302 A 18.131 18.131 0 0 1 196.101 0.3 A 17.802 17.802 0 0 1 201.602 1.109 A 14.129 14.129 0 0 1 208.551 6.05 Q 213.001 11.8 213.001 22.2 A 38.922 38.922 0 0 1 212.404 29.242 Q 211.683 33.159 210.089 36.25 A 19.419 19.419 0 0 1 207.451 40.15 A 18.081 18.081 0 0 1 196.984 46.025 A 26.927 26.927 0 0 1 191.801 46.5 Q 186.901 46.5 183.173 45.914 A 32.806 32.806 0 0 1 181.001 45.5 Z M 247.501 2.5 L 247.001 4.4 L 246.401 4.5 A 19.271 19.271 0 0 0 239.673 2.576 A 18.306 18.306 0 0 0 238.001 2.5 A 15.136 15.136 0 0 0 234.518 2.88 A 10.622 10.622 0 0 0 229.901 5.2 A 9.336 9.336 0 0 0 227.782 7.792 A 8.29 8.29 0 0 0 226.801 11.8 A 8.465 8.465 0 0 0 227.167 14.35 A 6.679 6.679 0 0 0 229.401 17.6 A 21.377 21.377 0 0 0 231.3 18.952 Q 233.353 20.266 236.383 21.72 A 81.444 81.444 0 0 0 237.401 22.2 Q 241.201 24 243.501 25.4 Q 245.801 26.8 247.401 29 A 8.324 8.324 0 0 1 248.91 32.874 A 10.883 10.883 0 0 1 249.001 34.3 Q 249.001 37.6 247.201 40.4 A 12.348 12.348 0 0 1 243.131 44.306 A 15.061 15.061 0 0 1 242.151 44.85 Q 238.901 46.5 234.801 46.5 Q 231.701 46.5 228.651 45.55 Q 225.601 44.6 223.301 43 L 223.601 41.3 L 224.101 41 Q 228.801 44.5 234.701 44.5 Q 239.965 44.5 243.241 41.85 A 10.767 10.767 0 0 0 243.651 41.5 A 10.733 10.733 0 0 0 245.82 38.881 A 8.807 8.807 0 0 0 247.001 34.4 A 8.193 8.193 0 0 0 246.612 31.816 A 6.7 6.7 0 0 0 244.451 28.7 A 20.949 20.949 0 0 0 242.589 27.348 Q 240.574 26.034 237.6 24.58 A 79.19 79.19 0 0 0 236.601 24.1 A 91.673 91.673 0 0 1 234.103 22.904 Q 231.893 21.802 230.351 20.85 Q 228.001 19.4 226.401 17.15 A 8.57 8.57 0 0 1 224.928 13.425 A 11.366 11.366 0 0 1 224.801 11.7 A 10.694 10.694 0 0 1 225.699 7.269 A 10.386 10.386 0 0 1 228.451 3.65 Q 232.08 0.519 238.031 0.5 A 22.76 22.76 0 0 1 238.101 0.5 A 23.069 23.069 0 0 1 244.798 1.528 A 28.364 28.364 0 0 1 247.501 2.5 Z M 69.901 1 L 69.901 2.9 L 69.401 3.1 Q 67.901 2.8 66.701 2.8 A 8.192 8.192 0 0 0 62.774 3.841 Q 61.595 4.476 60.44 5.5 A 16.415 16.415 0 0 0 59.901 6 A 22.858 22.858 0 0 0 57.621 8.614 Q 55.467 11.458 53.271 15.763 A 74.998 74.998 0 0 0 53.201 15.9 L 53.201 46 L 51.201 46 L 51.201 1.1 L 53.201 0.7 L 53.201 11.8 L 53.601 11.8 Q 55.779 7.865 58.056 5.362 A 18.368 18.368 0 0 1 60.001 3.5 A 12.261 12.261 0 0 1 63.395 1.496 A 10.592 10.592 0 0 1 67.201 0.8 Q 68.501 0.8 69.901 1 Z M 94.501 0.3 Q 103.001 0.3 107.901 6.35 Q 112.035 11.455 112.681 19.799 A 41.491 41.491 0 0 1 112.801 23 A 38.033 38.033 0 0 1 112.211 29.914 Q 111.501 33.751 109.936 36.81 A 19.87 19.87 0 0 1 107.751 40.2 A 16.464 16.464 0 0 1 95.735 46.422 A 23.437 23.437 0 0 1 93.801 46.5 Q 85.301 46.5 80.401 40.45 Q 76.267 35.345 75.621 27.001 A 41.491 41.491 0 0 1 75.501 23.8 A 38.033 38.033 0 0 1 76.091 16.886 Q 76.801 13.049 78.366 9.99 A 19.87 19.87 0 0 1 80.551 6.6 A 16.464 16.464 0 0 1 92.567 0.378 A 23.437 23.437 0 0 1 94.501 0.3 Z M 181.001 10.6 L 181.001 43.4 Q 187.101 44.5 191.801 44.5 A 23.19 23.19 0 0 0 197.63 43.809 A 16.012 16.012 0 0 0 206.001 38.65 Q 210.22 33.714 210.879 25.397 A 40.479 40.479 0 0 0 211.001 22.2 Q 211.001 12.7 207.101 7.5 A 12.591 12.591 0 0 0 197.878 2.386 A 17.818 17.818 0 0 0 196.101 2.3 A 16.492 16.492 0 0 0 188.276 4.301 A 19.386 19.386 0 0 0 188.001 4.45 A 21.558 21.558 0 0 0 182.912 8.388 A 26.727 26.727 0 0 0 181.001 10.6 Z M 94.501 2.3 A 17.596 17.596 0 0 0 88.84 3.17 A 14.496 14.496 0 0 0 82.051 8 Q 77.501 13.7 77.501 23.8 Q 77.501 30.801 79.767 35.615 A 17.339 17.339 0 0 0 81.851 39 A 14.083 14.083 0 0 0 92.177 44.434 A 19.618 19.618 0 0 0 93.801 44.5 A 17.596 17.596 0 0 0 99.462 43.63 A 14.496 14.496 0 0 0 106.251 38.8 Q 110.801 33.1 110.801 23 Q 110.801 15.999 108.535 11.185 A 17.339 17.339 0 0 0 106.451 7.8 A 14.083 14.083 0 0 0 96.125 2.366 A 19.618 19.618 0 0 0 94.501 2.3 Z M 16.601 29 A 18.615 18.615 0 0 0 20.81 28.551 Q 24.316 27.738 26.701 25.45 A 11.662 11.662 0 0 0 30.003 19.438 A 17.48 17.48 0 0 0 30.401 15.6 A 17.165 17.165 0 0 0 29.956 11.574 A 11.473 11.473 0 0 0 26.801 5.9 A 11.913 11.913 0 0 0 21.246 2.892 Q 19.264 2.4 16.901 2.4 Q 11.218 2.4 7.675 5.152 A 11.606 11.606 0 0 0 6.701 6 A 11.879 11.879 0 0 0 3.381 12.141 A 17.632 17.632 0 0 0 3.001 15.9 Q 3.001 22 6.601 25.5 A 11.867 11.867 0 0 0 12.028 28.466 Q 13.842 28.933 15.983 28.992 A 22.671 22.671 0 0 0 16.601 29 Z M 33.501 51.5 A 6.009 6.009 0 0 0 33.101 49.267 Q 32.552 47.883 31.251 46.9 A 13.497 13.497 0 0 0 28.138 45.162 A 17.72 17.72 0 0 0 25.751 44.4 Q 22.501 43.6 17.101 42.8 A 18.931 18.931 0 0 1 16.21 42.708 Q 15.216 42.584 13.891 42.336 A 61.368 61.368 0 0 1 13.701 42.3 Q 9.743 44.315 7.027 46.382 A 24.857 24.857 0 0 0 5.101 48 A 11.962 11.962 0 0 0 3.4 49.946 Q 2.427 51.362 2.131 52.866 A 6.88 6.88 0 0 0 2.001 54.2 A 6.938 6.938 0 0 0 3.902 58.965 A 11.102 11.102 0 0 0 5.701 60.55 Q 8.805 62.773 13.668 63.131 A 26.327 26.327 0 0 0 15.601 63.2 A 23.797 23.797 0 0 0 22.139 62.322 A 21.549 21.549 0 0 0 24.501 61.5 A 21.406 21.406 0 0 0 27.878 59.754 A 15.731 15.731 0 0 0 31.051 57.1 A 11.034 11.034 0 0 0 32.496 55.134 Q 33.501 53.358 33.501 51.5 Z" vector-effect="non-scaling-stroke"/></g></svg>